<svg xmlns="http://www.w3.org/2000/svg" viewBox="0 0 330.96 71.73"><defs><style>.cls-1{fill:#aac748;}.cls-2{fill:#264824;}.cls-3{fill:#339143;}</style></defs><g id="Layer_1" data-name="Layer 1"><path class="cls-1" d="M88.71,53.43V47.65l15.36-18.47H88.71V22.34h25.13v5.78L98.47,46.59h15.37v6.84Z"/><path class="cls-1" d="M124.71,22.34H138l7.77,31.09H138.7l-.49-2A8.29,8.29,0,0,0,130,45.17h-3.9l-2,8.26h-7.06Zm5.24,16a15.93,15.93,0,0,1,5.24.89l-2.53-10.08H130l-2.31,9.19Z"/><path class="cls-1" d="M144,22.34h8.09l6.57,10.57,6.61-10.57h8l-11.23,18v13.1h-6.84V40.33Z"/><path class="cls-1" d="M175.06,22.34h25.09v6.84H191V53.43h-6.79V29.18h-9.15Z"/><path class="cls-1" d="M202.81,39.13V36.64a15.21,15.21,0,0,1,30.42,0v2.49a15.21,15.21,0,0,1-30.42,0Zm6.84,0a8.37,8.37,0,0,0,16.74,0V36.64a8.37,8.37,0,0,0-16.74,0Z"/><path class="cls-1" d="M244.51,22.34V41A6.46,6.46,0,0,0,251,47.48h1A6.49,6.49,0,0,0,258.45,41V22.34h6.79V41A13.29,13.29,0,0,1,252,54.32h-1A13.3,13.3,0,0,1,237.67,41V22.34Z"/><path class="cls-1" d="M271.9,22.34h6l13,18.21V22.34h6.79V53.43h-6l-13-18.21V53.43h-6.8Z"/><path class="cls-1" d="M309.91,22.34h13.28L331,53.43H323.9l-.49-2a8.3,8.3,0,0,0-8.26-6.26h-3.91l-2,8.26h-7.06Zm5.24,16a16,16,0,0,1,5.24.89l-2.53-10.08h-2.62l-2.31,9.19Z"/><path class="cls-2" d="M91.41,65v3.16h1.9a.43.43,0,0,1,.28.08.28.28,0,0,1,.08.2.3.3,0,0,1-.08.2.43.43,0,0,1-.28.07H90.12a.41.41,0,0,1-.28-.07.27.27,0,0,1-.09-.2.25.25,0,0,1,.09-.2.41.41,0,0,1,.28-.08h.74V61.55h-.74a.41.41,0,0,1-.28-.08.25.25,0,0,1-.09-.2.26.26,0,0,1,.1-.21.45.45,0,0,1,.27-.06H96.2v1.89a.44.44,0,0,1-.08.29.29.29,0,0,1-.4,0,.39.39,0,0,1-.08-.29V61.55H91.41v2.87h2v-.63a.43.43,0,0,1,.08-.28.29.29,0,0,1,.4,0,.43.43,0,0,1,.08.28V65.6a.43.43,0,0,1-.08.28.29.29,0,0,1-.4,0,.43.43,0,0,1-.08-.28V65Z"/><path class="cls-2" d="M99.78,63v1.4a9.49,9.49,0,0,1,1.62-1.26,2.19,2.19,0,0,1,1-.28,1.47,1.47,0,0,1,.92.34c.28.22.43.39.43.5a.29.29,0,0,1-.09.21.28.28,0,0,1-.2.08l-.12,0-.17-.15a1.46,1.46,0,0,0-.4-.32.8.8,0,0,0-.33-.08,1.77,1.77,0,0,0-.87.29,12.71,12.71,0,0,0-1.77,1.41v3h2.45a.46.46,0,0,1,.29.08.28.28,0,0,1,.08.2.3.3,0,0,1-.08.2.46.46,0,0,1-.29.07H97.9a.44.44,0,0,1-.29-.07.28.28,0,0,1-.08-.2.25.25,0,0,1,.08-.18.44.44,0,0,1,.29-.08h1.33v-4.6h-1a.38.38,0,0,1-.28-.08.27.27,0,0,1,0-.4.41.41,0,0,1,.28-.08Z"/><path class="cls-2" d="M111.13,66H105.5a2.66,2.66,0,0,0,2.76,2.38,4.67,4.67,0,0,0,1.3-.2,3.42,3.42,0,0,0,1.1-.54.38.38,0,0,1,.22-.1.27.27,0,0,1,.26.27.3.3,0,0,1-.1.22,3,3,0,0,1-1.12.61,4.72,4.72,0,0,1-1.66.29,3.27,3.27,0,0,1-2.37-.93,3,3,0,0,1-.94-2.25,2.73,2.73,0,0,1,.89-2.06,3.25,3.25,0,0,1,4.43,0A3.08,3.08,0,0,1,111.13,66Zm-.56-.56a2.41,2.41,0,0,0-.86-1.48,2.59,2.59,0,0,0-1.67-.58,2.53,2.53,0,0,0-1.66.57,2.38,2.38,0,0,0-.87,1.49Z"/><path class="cls-2" d="M117.67,63.35a.41.41,0,0,1,.07-.27.27.27,0,0,1,.2-.09.25.25,0,0,1,.2.09.39.39,0,0,1,.08.29v.94a.39.39,0,0,1-.08.29.28.28,0,0,1-.2.08.26.26,0,0,1-.19-.07.33.33,0,0,1-.08-.24.91.91,0,0,0-.41-.65,2.55,2.55,0,0,0-1.43-.37,2.4,2.4,0,0,0-1.44.38.7.7,0,0,0,.07,1.29,3.67,3.67,0,0,0,1.2.28,8.36,8.36,0,0,1,1.6.28,2.13,2.13,0,0,1,.95.64,1.39,1.39,0,0,1,.31.88,1.59,1.59,0,0,1-.68,1.25,3.05,3.05,0,0,1-2,.55,3.33,3.33,0,0,1-2.14-.66.89.89,0,0,1,0,.29.26.26,0,0,1-.1.11.24.24,0,0,1-.15,0,.26.26,0,0,1-.2-.08.43.43,0,0,1-.08-.28V67.18a.41.41,0,0,1,.08-.28.25.25,0,0,1,.2-.09.28.28,0,0,1,.2.08.33.33,0,0,1,.08.22.85.85,0,0,0,.15.51,1.71,1.71,0,0,0,.74.52,3.16,3.16,0,0,0,1.23.21,2.67,2.67,0,0,0,1.6-.4,1.11,1.11,0,0,0,.53-.85.93.93,0,0,0-.53-.82,4.2,4.2,0,0,0-1.57-.42,6.68,6.68,0,0,1-1.48-.27,1.46,1.46,0,0,1-.69-.51,1.22,1.22,0,0,1-.25-.74,1.28,1.28,0,0,1,.69-1.13,3.28,3.28,0,0,1,1.67-.41A3,3,0,0,1,117.67,63.35Z"/><path class="cls-2" d="M121.72,60.44v3.39a3.6,3.6,0,0,1,1-.8,2.75,2.75,0,0,1,2.18,0,1.93,1.93,0,0,1,.75.7,1.79,1.79,0,0,1,.3,1v3.42h.62a.44.44,0,0,1,.29.08.28.28,0,0,1,.08.2.3.3,0,0,1-.08.2.44.44,0,0,1-.29.07h-1.79a.42.42,0,0,1-.29-.07.27.27,0,0,1-.09-.2.25.25,0,0,1,.09-.2.42.42,0,0,1,.29-.08h.61V64.75a1.3,1.3,0,0,0-.43-1,1.66,1.66,0,0,0-1.2-.4,1.83,1.83,0,0,0-1,.29,7.76,7.76,0,0,0-1,1v3.49h.63a.43.43,0,0,1,.28.08.25.25,0,0,1,.09.2.27.27,0,0,1-.09.2.43.43,0,0,1-.28.07h-1.8a.41.41,0,0,1-.28-.07.27.27,0,0,1-.09-.2.25.25,0,0,1,.09-.2.41.41,0,0,1,.28-.08h.62V61h-.74a.41.41,0,0,1-.28-.08.27.27,0,0,1-.09-.21.23.23,0,0,1,.09-.19.36.36,0,0,1,.28-.08Z"/><path class="cls-2" d="M137.8,66.38h-.63l-2.12-4.83h-.11v6.58h1a.41.41,0,0,1,.28.08.25.25,0,0,1,.09.2.27.27,0,0,1-.09.2.41.41,0,0,1-.28.07h-2a.43.43,0,0,1-.28-.07.26.26,0,0,1-.08-.2.24.24,0,0,1,.08-.2.43.43,0,0,1,.28-.08h.47V61.55H134a.43.43,0,0,1-.28-.08.27.27,0,0,1,0-.4A.43.43,0,0,1,134,61h1.36l2.09,4.75,2-4.75h1.36a.46.46,0,0,1,.29.07.29.29,0,0,1,0,.4.46.46,0,0,1-.29.08h-.35v6.58H141a.42.42,0,0,1,.29.08.25.25,0,0,1,.09.2.27.27,0,0,1-.09.2.42.42,0,0,1-.29.07h-2a.43.43,0,0,1-.28-.07.27.27,0,0,1-.09-.2.28.28,0,0,1,.08-.2.46.46,0,0,1,.29-.08h1V61.55h-.12Z"/><path class="cls-2" d="M148.12,66H142.5a2.68,2.68,0,0,0,.89,1.73,2.8,2.8,0,0,0,1.87.65,4.66,4.66,0,0,0,1.29-.2,3.59,3.59,0,0,0,1.11-.54.33.33,0,0,1,.21-.1.27.27,0,0,1,.27.27A.31.31,0,0,1,148,68a2.9,2.9,0,0,1-1.12.61,4.7,4.7,0,0,1-1.65.29,3.24,3.24,0,0,1-2.37-.93,3,3,0,0,1-.95-2.25,2.77,2.77,0,0,1,.89-2.06,3,3,0,0,1,2.2-.86,3,3,0,0,1,2.23.88A3.08,3.08,0,0,1,148.12,66Zm-.56-.56a2.37,2.37,0,0,0-.86-1.48,2.7,2.7,0,0,0-3.33,0,2.47,2.47,0,0,0-.87,1.49Z"/><path class="cls-2" d="M155.54,60.44v7.69h.74a.41.41,0,0,1,.28.08.25.25,0,0,1,.09.2.27.27,0,0,1-.09.2.41.41,0,0,1-.28.07H155V67.59a2.92,2.92,0,0,1-2.44,1.31,2.74,2.74,0,0,1-1.43-.4A2.83,2.83,0,0,1,150,67.37a3.16,3.16,0,0,1,0-3,2.83,2.83,0,0,1,1.09-1.13,2.77,2.77,0,0,1,1.44-.4A2.94,2.94,0,0,1,155,64.11V61h-.74a.41.41,0,0,1-.28-.08.27.27,0,0,1-.09-.21.23.23,0,0,1,.09-.19.36.36,0,0,1,.28-.08ZM155,65.85a2.44,2.44,0,0,0-.71-1.77,2.32,2.32,0,0,0-3.38,0,2.56,2.56,0,0,0,0,3.54,2.32,2.32,0,0,0,3.38,0A2.44,2.44,0,0,0,155,65.85Z"/><path class="cls-2" d="M160.83,63v5.14H163a.41.41,0,0,1,.28.08.25.25,0,0,1,.09.2.27.27,0,0,1-.09.2.41.41,0,0,1-.28.07h-4.89a.46.46,0,0,1-.29-.07.3.3,0,0,1-.08-.2.28.28,0,0,1,.08-.2.46.46,0,0,1,.29-.08h2.16V63.55h-1.61a.38.38,0,0,1-.28-.08.25.25,0,0,1-.09-.19.26.26,0,0,1,.09-.21.41.41,0,0,1,.28-.08Zm0-2.83v1.43H160V60.16Z"/><path class="cls-2" d="M167.1,63h3a.43.43,0,0,1,.28.08.25.25,0,0,1,.08.21.24.24,0,0,1-.08.19.38.38,0,0,1-.28.08h-3v3.68a1,1,0,0,0,.38.8,1.77,1.77,0,0,0,1.13.32,5,5,0,0,0,1.21-.17,4,4,0,0,0,1-.38.49.49,0,0,1,.22-.08.27.27,0,0,1,.26.27.29.29,0,0,1-.08.19,2.84,2.84,0,0,1-1,.47,5.23,5.23,0,0,1-1.56.25,2.43,2.43,0,0,1-1.54-.45,1.48,1.48,0,0,1-.57-1.22V63.55h-1a.38.38,0,0,1-.28-.08.29.29,0,0,1,0-.4.43.43,0,0,1,.28-.08h1V61.36a.43.43,0,0,1,.08-.28.29.29,0,0,1,.4,0,.43.43,0,0,1,.08.28Z"/><path class="cls-2" d="M178.92,66H173.3a2.68,2.68,0,0,0,.89,1.73,2.76,2.76,0,0,0,1.86.65,4.67,4.67,0,0,0,1.3-.2,3.42,3.42,0,0,0,1.1-.54.38.38,0,0,1,.22-.1.27.27,0,0,1,.26.27.3.3,0,0,1-.1.22,3,3,0,0,1-1.12.61,4.72,4.72,0,0,1-1.66.29,3.23,3.23,0,0,1-2.36-.93,3,3,0,0,1-.95-2.25,2.73,2.73,0,0,1,.89-2.06,3.25,3.25,0,0,1,4.43,0A3.08,3.08,0,0,1,178.92,66Zm-.56-.56a2.41,2.41,0,0,0-.86-1.48,2.57,2.57,0,0,0-1.67-.58,2.53,2.53,0,0,0-1.66.57,2.42,2.42,0,0,0-.87,1.49Z"/><path class="cls-2" d="M183,63v1.4a9.49,9.49,0,0,1,1.62-1.26,2.2,2.2,0,0,1,1-.28,1.47,1.47,0,0,1,.91.34c.28.22.43.39.43.5a.29.29,0,0,1-.09.21.28.28,0,0,1-.2.08l-.12,0-.17-.15a1.46,1.46,0,0,0-.4-.32.8.8,0,0,0-.33-.08,1.77,1.77,0,0,0-.87.29A12.71,12.71,0,0,0,183,65.11v3h2.45a.46.46,0,0,1,.29.08.28.28,0,0,1,.08.2.3.3,0,0,1-.08.2.46.46,0,0,1-.29.07h-4.33a.46.46,0,0,1-.29-.07.28.28,0,0,1-.08-.2.25.25,0,0,1,.08-.18.44.44,0,0,1,.29-.08h1.33v-4.6h-1a.38.38,0,0,1-.28-.08.27.27,0,0,1,0-.4.41.41,0,0,1,.28-.08Z"/><path class="cls-2" d="M190.67,63v1.4a9.49,9.49,0,0,1,1.62-1.26,2.19,2.19,0,0,1,1-.28,1.47,1.47,0,0,1,.92.34c.28.22.42.39.42.5a.27.27,0,0,1-.28.29l-.12,0-.17-.15a1.46,1.46,0,0,0-.4-.32.8.8,0,0,0-.33-.08,1.77,1.77,0,0,0-.87.29,12.71,12.71,0,0,0-1.77,1.41v3h2.45a.46.46,0,0,1,.29.08.28.28,0,0,1,.08.2.3.3,0,0,1-.08.2.46.46,0,0,1-.29.07h-4.33a.44.44,0,0,1-.29-.07.28.28,0,0,1-.08-.2.25.25,0,0,1,.08-.18.42.42,0,0,1,.29-.08h1.33v-4.6h-1a.38.38,0,0,1-.28-.08.27.27,0,0,1,0-.4.41.41,0,0,1,.28-.08Z"/><path class="cls-2" d="M200.62,68.68v-.79a4,4,0,0,1-2.57,1,2.26,2.26,0,0,1-1.55-.5,1.62,1.62,0,0,1-.56-1.23,1.75,1.75,0,0,1,.74-1.4,3.31,3.31,0,0,1,2.14-.6,6.14,6.14,0,0,1,.83,0c.3,0,.62.08,1,.15v-.89a1,1,0,0,0-.42-.79,2,2,0,0,0-1.26-.34,6.4,6.4,0,0,0-1.81.38l-.27.06a.24.24,0,0,1-.18-.07.3.3,0,0,1-.08-.2.27.27,0,0,1,.07-.18,2.59,2.59,0,0,1,.74-.27A6.75,6.75,0,0,1,199,62.8a2.39,2.39,0,0,1,1.63.51,1.54,1.54,0,0,1,.59,1.17v3.65h.73a.42.42,0,0,1,.29.08.25.25,0,0,1,.09.2.27.27,0,0,1-.09.2.42.42,0,0,1-.29.07Zm0-2.74a5.17,5.17,0,0,0-.82-.17,9,9,0,0,0-.92,0,3,3,0,0,0-1.88.52,1.15,1.15,0,0,0-.51.93,1.08,1.08,0,0,0,.39.84,1.72,1.72,0,0,0,1.14.34,3.12,3.12,0,0,0,1.33-.29,4.65,4.65,0,0,0,1.27-.91Z"/><path class="cls-2" d="M205,63v.84a3.93,3.93,0,0,1,1-.81,2.38,2.38,0,0,1,1-.22,2.44,2.44,0,0,1,1.15.27,1.87,1.87,0,0,1,.67.65,1.69,1.69,0,0,1,.3.94v3.47h.47a.43.43,0,0,1,.28.08.24.24,0,0,1,.08.2.26.26,0,0,1-.08.2.43.43,0,0,1-.28.07h-1.48a.44.44,0,0,1-.29-.07.27.27,0,0,1-.09-.2.25.25,0,0,1,.09-.2.44.44,0,0,1,.29-.08h.46V64.75a1.3,1.3,0,0,0-.43-1,1.59,1.59,0,0,0-1.14-.41,2,2,0,0,0-.95.22,5.12,5.12,0,0,0-1.14,1.1v3.46h.62a.41.41,0,0,1,.28.08.25.25,0,0,1,.09.2.27.27,0,0,1-.09.2.41.41,0,0,1-.28.07h-1.8a.43.43,0,0,1-.28-.07.27.27,0,0,1-.09-.2.25.25,0,0,1,.09-.2.43.43,0,0,1,.28-.08h.63V63.55h-.47a.36.36,0,0,1-.28-.08.27.27,0,0,1,0-.4.41.41,0,0,1,.28-.08Z"/><path class="cls-2" d="M217.42,66h-5.63a2.66,2.66,0,0,0,2.76,2.38,4.73,4.73,0,0,0,1.3-.2,3.42,3.42,0,0,0,1.1-.54.35.35,0,0,1,.22-.1.25.25,0,0,1,.18.08.29.29,0,0,1,.08.19.3.3,0,0,1-.1.22,3,3,0,0,1-1.12.61,4.72,4.72,0,0,1-1.66.29,3.27,3.27,0,0,1-2.37-.93,3,3,0,0,1-1-2.25,2.77,2.77,0,0,1,.89-2.06,3.27,3.27,0,0,1,4.44,0A3.08,3.08,0,0,1,217.42,66Zm-.56-.56a2.38,2.38,0,0,0-.87-1.48,2.54,2.54,0,0,0-1.66-.58,2.52,2.52,0,0,0-1.66.57,2.38,2.38,0,0,0-.87,1.49Z"/><path class="cls-2" d="M223.72,68.68v-.79a4,4,0,0,1-2.57,1,2.26,2.26,0,0,1-1.55-.5,1.58,1.58,0,0,1-.56-1.23,1.74,1.74,0,0,1,.73-1.4,3.34,3.34,0,0,1,2.15-.6,6.14,6.14,0,0,1,.83,0c.3,0,.62.08,1,.15v-.89a1,1,0,0,0-.42-.79,2,2,0,0,0-1.27-.34,6.41,6.41,0,0,0-1.8.38l-.27.06a.24.24,0,0,1-.18-.07.3.3,0,0,1-.08-.2.23.23,0,0,1,.07-.18,2.59,2.59,0,0,1,.74-.27,6.66,6.66,0,0,1,1.55-.27,2.39,2.39,0,0,1,1.63.51,1.54,1.54,0,0,1,.59,1.17v3.65H225a.44.44,0,0,1,.29.08.25.25,0,0,1,.09.2.27.27,0,0,1-.09.2.44.44,0,0,1-.29.07Zm0-2.74a5.42,5.42,0,0,0-.82-.17,9,9,0,0,0-.92,0,3,3,0,0,0-1.88.52,1.15,1.15,0,0,0-.51.93A1.08,1.08,0,0,0,220,68a1.72,1.72,0,0,0,1.14.34,3.12,3.12,0,0,0,1.33-.29,4.81,4.81,0,0,0,1.27-.91Z"/><path class="cls-2" d="M228.05,63v.84a3.93,3.93,0,0,1,1-.81,2.38,2.38,0,0,1,1-.22,2.44,2.44,0,0,1,1.15.27,1.87,1.87,0,0,1,.67.65,1.69,1.69,0,0,1,.3.94v3.47h.46a.44.44,0,0,1,.29.08.28.28,0,0,1,.08.2.3.3,0,0,1-.08.2.44.44,0,0,1-.29.07h-1.47a.42.42,0,0,1-.29-.07.27.27,0,0,1-.09-.2.25.25,0,0,1,.09-.2.42.42,0,0,1,.29-.08h.46V64.75a1.33,1.33,0,0,0-.43-1,1.61,1.61,0,0,0-1.14-.41,2,2,0,0,0-.95.22,5.12,5.12,0,0,0-1.14,1.1v3.46h.62a.41.41,0,0,1,.28.08.25.25,0,0,1,.09.2.27.27,0,0,1-.09.2.41.41,0,0,1-.28.07h-1.8a.41.41,0,0,1-.28-.07.27.27,0,0,1-.09-.2.25.25,0,0,1,.09-.2.41.41,0,0,1,.28-.08h.62V63.55H227a.4.4,0,0,1-.29-.08.29.29,0,0,1,0-.4A.46.46,0,0,1,227,63Z"/><path class="cls-2" d="M245.7,61.55v-.19a.38.38,0,0,1,.08-.28A.23.23,0,0,1,246,61a.24.24,0,0,1,.2.08.43.43,0,0,1,.07.28v1.41a.41.41,0,0,1-.07.28.25.25,0,0,1-.2.09.28.28,0,0,1-.2-.08.37.37,0,0,1-.08-.26,1.38,1.38,0,0,0-.57-1,2.46,2.46,0,0,0-2.85,0,1.42,1.42,0,0,0-.54,1.11,1.21,1.21,0,0,0,.15.6,1.27,1.27,0,0,0,.4.43,2.42,2.42,0,0,0,.56.27,7.87,7.87,0,0,0,1,.22,6.82,6.82,0,0,1,1.55.37,1.91,1.91,0,0,1,.86.71,1.89,1.89,0,0,1,.3,1.07,2,2,0,0,1-.76,1.61,2.93,2.93,0,0,1-2,.67,3,3,0,0,1-2.3-.9v.32a.43.43,0,0,1-.07.28.29.29,0,0,1-.4,0,.43.43,0,0,1-.08-.28V66.79a.46.46,0,0,1,.08-.29.26.26,0,0,1,.2-.08.22.22,0,0,1,.19.08.34.34,0,0,1,.08.25,1.54,1.54,0,0,0,.65,1.1,2.56,2.56,0,0,0,1.65.5,2.39,2.39,0,0,0,1.64-.52A1.57,1.57,0,0,0,246,66.6a1.28,1.28,0,0,0-.24-.77,1.49,1.49,0,0,0-.68-.54,7.63,7.63,0,0,0-1.31-.31,4.37,4.37,0,0,1-2-.7,1.6,1.6,0,0,1-.6-1.35,2,2,0,0,1,.69-1.49,2.65,2.65,0,0,1,1.83-.62A2.91,2.91,0,0,1,245.7,61.55Z"/><path class="cls-2" d="M250.29,63h3a.43.43,0,0,1,.28.08.26.26,0,0,1,.09.21.25.25,0,0,1-.09.19.38.38,0,0,1-.28.08h-3v3.68a1,1,0,0,0,.39.8,1.72,1.72,0,0,0,1.12.32,4.89,4.89,0,0,0,1.21-.17,3.9,3.9,0,0,0,1-.38.49.49,0,0,1,.22-.08.27.27,0,0,1,.18.46,2.84,2.84,0,0,1-1,.47,5.18,5.18,0,0,1-1.56.25,2.45,2.45,0,0,1-1.54-.45,1.48,1.48,0,0,1-.57-1.22V63.55h-1a.38.38,0,0,1-.28-.08.29.29,0,0,1,0-.4.43.43,0,0,1,.28-.08h1V61.36a.43.43,0,0,1,.08-.28.29.29,0,0,1,.4,0,.43.43,0,0,1,.08.28Z"/><path class="cls-2" d="M259.16,68.68l-2.56-5.13h-.17a.38.38,0,0,1-.28-.08.25.25,0,0,1-.09-.19.3.3,0,0,1,.05-.16.27.27,0,0,1,.11-.1.55.55,0,0,1,.21,0h1.51a.44.44,0,0,1,.29.08.29.29,0,0,1,.08.21.27.27,0,0,1-.08.19.39.39,0,0,1-.29.08h-.74l2.26,4.53,2.22-4.53h-.75a.38.38,0,0,1-.28-.08.29.29,0,0,1,0-.4.43.43,0,0,1,.28-.08h1.51a.46.46,0,0,1,.29.08.25.25,0,0,1,.08.21.21.21,0,0,1-.05.15.23.23,0,0,1-.12.1,2.11,2.11,0,0,1-.37,0l-3.49,7.12h.86a.41.41,0,0,1,.28.07.27.27,0,0,1,0,.4.41.41,0,0,1-.28.08h-3.18a.41.41,0,0,1-.28-.07.27.27,0,0,1-.09-.21.25.25,0,0,1,.09-.2.41.41,0,0,1,.28-.07h1.73Z"/><path class="cls-2" d="M267.1,60.44v7.69h2.17a.44.44,0,0,1,.29.08.24.24,0,0,1,.08.2.26.26,0,0,1-.08.2.44.44,0,0,1-.29.07h-4.89a.43.43,0,0,1-.28-.07.27.27,0,0,1-.09-.2.25.25,0,0,1,.09-.2.43.43,0,0,1,.28-.08h2.17V61H265a.46.46,0,0,1-.29-.08.27.27,0,0,1-.09-.21.23.23,0,0,1,.09-.19.39.39,0,0,1,.29-.08Z"/><path class="cls-2" d="M277.51,66h-5.63a2.66,2.66,0,0,0,2.76,2.38,4.67,4.67,0,0,0,1.3-.2,3.42,3.42,0,0,0,1.1-.54.38.38,0,0,1,.22-.1.27.27,0,0,1,.26.27.3.3,0,0,1-.1.22,3,3,0,0,1-1.12.61,4.72,4.72,0,0,1-1.66.29,3.23,3.23,0,0,1-2.36-.93,3,3,0,0,1-.95-2.25,2.73,2.73,0,0,1,.89-2.06,3.25,3.25,0,0,1,4.43,0A3.08,3.08,0,0,1,277.51,66Zm-.56-.56a2.41,2.41,0,0,0-.86-1.48,2.57,2.57,0,0,0-1.67-.58,2.53,2.53,0,0,0-1.66.57,2.38,2.38,0,0,0-.87,1.49Z"/><path class="cls-2" d="M286.06,68.13V61.55h-.74a.41.41,0,0,1-.28-.08.27.27,0,0,1,0-.4.41.41,0,0,1,.28-.07h3.47a2.36,2.36,0,0,1,1.68.59,1.79,1.79,0,0,1-.44,3,2.69,2.69,0,0,1,1.26.82,1.8,1.8,0,0,1,.4,1.14,1.92,1.92,0,0,1-.26,1,2.07,2.07,0,0,1-.8.78,2.25,2.25,0,0,1-1.18.32h-4.13a.41.41,0,0,1-.28-.07.27.27,0,0,1-.09-.2.25.25,0,0,1,.09-.2.41.41,0,0,1,.28-.08Zm.55-3.72h2a2.7,2.7,0,0,0,1.14-.23,1.4,1.4,0,0,0,.62-.53,1.2,1.2,0,0,0-.26-1.67,1.83,1.83,0,0,0-1.27-.43h-2.19Zm0,3.72h2.8a1.82,1.82,0,0,0,.92-.23,1.62,1.62,0,0,0,.6-.59,1.3,1.3,0,0,0-.09-1.54,1.8,1.8,0,0,0-.81-.6,4.14,4.14,0,0,0-1.43-.2h-2Z"/><path class="cls-2" d="M296.41,63v5.14h2.17a.46.46,0,0,1,.29.08.28.28,0,0,1,.08.2.3.3,0,0,1-.08.2.46.46,0,0,1-.29.07h-4.89a.41.41,0,0,1-.28-.07.27.27,0,0,1-.09-.2.25.25,0,0,1,.09-.2.41.41,0,0,1,.28-.08h2.17V63.55h-1.61a.4.4,0,0,1-.29-.08.25.25,0,0,1-.09-.19.26.26,0,0,1,.09-.21.44.44,0,0,1,.29-.08Zm0-2.83v1.43h-.81V60.16Z"/><path class="cls-2" d="M305.64,63.35a.41.41,0,0,1,.08-.27.27.27,0,0,1,.4,0,.44.44,0,0,1,.08.29v.94a.44.44,0,0,1-.08.29.28.28,0,0,1-.2.08.25.25,0,0,1-.19-.07.38.38,0,0,1-.09-.24.88.88,0,0,0-.41-.65,2.51,2.51,0,0,0-1.42-.37,2.4,2.4,0,0,0-1.44.38.79.79,0,0,0-.39.63.77.77,0,0,0,.46.66,3.6,3.6,0,0,0,1.2.28,8.37,8.37,0,0,1,1.59.28,2.07,2.07,0,0,1,.95.64,1.39,1.39,0,0,1,.31.88,1.57,1.57,0,0,1-.67,1.25,3.07,3.07,0,0,1-2,.55,3.35,3.35,0,0,1-2.14-.66.89.89,0,0,1,0,.29.19.19,0,0,1-.09.11.29.29,0,0,1-.16,0,.24.24,0,0,1-.19-.08.43.43,0,0,1-.08-.28V67.18a.41.41,0,0,1,.07-.28.25.25,0,0,1,.2-.09.32.32,0,0,1,.21.08.33.33,0,0,1,.08.22.85.85,0,0,0,.15.51,1.68,1.68,0,0,0,.73.52,3.23,3.23,0,0,0,1.23.21,2.7,2.7,0,0,0,1.61-.4,1.1,1.1,0,0,0,.52-.85.93.93,0,0,0-.53-.82,4.14,4.14,0,0,0-1.57-.42,6.68,6.68,0,0,1-1.47-.27,1.54,1.54,0,0,1-.7-.51,1.22,1.22,0,0,1-.25-.74,1.27,1.27,0,0,1,.7-1.13,3.24,3.24,0,0,1,1.66-.41A3,3,0,0,1,305.64,63.35Z"/><path class="cls-2" d="M310.38,63h3a.41.41,0,0,1,.28.08.26.26,0,0,1,.09.21.25.25,0,0,1-.09.19.36.36,0,0,1-.28.08h-3v3.68a1,1,0,0,0,.39.8,1.72,1.72,0,0,0,1.12.32,4.89,4.89,0,0,0,1.21-.17,4.14,4.14,0,0,0,1-.38.46.46,0,0,1,.21-.08.27.27,0,0,1,.27.27.26.26,0,0,1-.09.19,2.84,2.84,0,0,1-1,.47,5.18,5.18,0,0,1-1.56.25,2.4,2.4,0,0,1-1.53-.45,1.46,1.46,0,0,1-.58-1.22V63.55h-1a.39.39,0,0,1-.29-.08.29.29,0,0,1,0-.4.44.44,0,0,1,.29-.08h1V61.36a.43.43,0,0,1,.08-.28.26.26,0,0,1,.2-.08.24.24,0,0,1,.2.08.38.38,0,0,1,.08.28Z"/><path class="cls-2" d="M318.56,63v1.4a9.14,9.14,0,0,1,1.61-1.26,2.23,2.23,0,0,1,1-.28,1.45,1.45,0,0,1,.91.34c.29.22.43.39.43.5a.27.27,0,0,1-.29.29l-.11,0-.17-.15a1.83,1.83,0,0,0-.4-.32.88.88,0,0,0-.34-.08,1.77,1.77,0,0,0-.87.29,12.23,12.23,0,0,0-1.76,1.41v3H321a.44.44,0,0,1,.29.08.24.24,0,0,1,.08.2.26.26,0,0,1-.08.2.44.44,0,0,1-.29.07h-4.33a.41.41,0,0,1-.28-.07.25.25,0,0,1,0-.38.44.44,0,0,1,.29-.08H318v-4.6h-1a.38.38,0,0,1-.28-.08.29.29,0,0,1,0-.4A.41.41,0,0,1,317,63Z"/><path class="cls-2" d="M330,65.85a3,3,0,0,1-.9,2.16,3.11,3.11,0,0,1-4.37,0,2.91,2.91,0,0,1-.9-2.15,3,3,0,0,1,.9-2.16,3,3,0,0,1,2.19-.89,3.06,3.06,0,0,1,3.08,3Zm-.56,0a2.38,2.38,0,0,0-.74-1.77,2.48,2.48,0,0,0-1.79-.73,2.45,2.45,0,0,0-1.79.74,2.46,2.46,0,0,0,0,3.52,2.45,2.45,0,0,0,1.79.74,2.48,2.48,0,0,0,1.79-.73A2.38,2.38,0,0,0,329.44,65.85Z"/><path class="cls-1" d="M49.31,67.22a9.43,9.43,0,0,0-2.56-7.63c-6-6.05-20.35-2.15-11.88,6.54,2,2.06,4.14,4.15,6.86,5.08C46.4,72.81,48.86,70.44,49.31,67.22Z"/><path class="cls-3" d="M.69,13.5c-1.18.81-.45,2.9-.61,4.21a8.31,8.31,0,0,0,.6,4.52,89.63,89.63,0,0,0,7.56,12.7A23.65,23.65,0,0,0,15,41.67c2.61,1.69,8.85,10.07,6.1,2.82Q19.25,39.67,17.14,35A172,172,0,0,0,8,17.35,11.44,11.44,0,0,0,5.35,14a4.27,4.27,0,0,0-4.1-.78A4.24,4.24,0,0,0,.69,13.5Z"/><path class="cls-3" d="M37.82,32.63a1.92,1.92,0,0,0,1.07.14c1.32-.16,3.08-6,3.53-7.11L51.14,3.93c.5-1.22.88-2.88-.2-3.65S48.15.7,47.26,1.89A58.53,58.53,0,0,0,38.19,20C37.76,21.42,34.94,31.23,37.82,32.63Z"/><path class="cls-3" d="M67.48,36.17c-.6-1.75-9.84.4-12,.77-5.38.89-12.11,1.2-16.86,4a21.12,21.12,0,0,0,5,1.48,38.31,38.31,0,0,0,7.94.09c4.27-.4,11.86-1.5,15.07-4.7C67.36,37.05,67.6,36.53,67.48,36.17Z"/><path class="cls-3" d="M20,68.53c-.41-3.26-.59-6.77,1.16-9.69,1.34-2.27,3.29-4.11,4.67-6.36a109.61,109.61,0,0,1,8-12.2,14.25,14.25,0,0,1,4-3.7c.81-.44,1.73-.49,2.55-1,1.28-.73,2.54-1.51,3.76-2.34a13,13,0,0,0,3.44-2.91c.22-.3-.84-.16-.91-.15a2.28,2.28,0,0,0-1.36.59,14.68,14.68,0,0,1-4.14,3.28c-1,.63-2,1.24-3,1.81l1.39-.42A10.7,10.7,0,0,0,33,39.06a51.35,51.35,0,0,0-6.11,8.38,90.23,90.23,0,0,1-5.29,8.25,22.41,22.41,0,0,0-3.27,4.59c-1.24,2.76-1,5.94-.67,8.87,0,.36,2.38-.09,2.31-.62Z"/><path class="cls-2" d="M19.06,71.27H19c-.75-.16-.84-.84-.91-1.34a20,20,0,0,1,1-10.16,11.19,11.19,0,0,1,1.1-2.14,5.93,5.93,0,0,0,1.1-2.14A8.17,8.17,0,0,0,21,51.11a18.14,18.14,0,0,0-2.11-4.89,12.6,12.6,0,0,0-4.39-3.79A27.25,27.25,0,0,1,12,40.71,28.45,28.45,0,0,1,1.42,21.48a29.56,29.56,0,0,1-.17-3.88l0-.38a7.08,7.08,0,0,0-.05-1.38l0-.15A12.07,12.07,0,0,1,1,13.87V12a.3.3,0,0,1,.23-.29c1.26-.28,2.09,1.29,2.4,1.89a13.35,13.35,0,0,1,.73,1.76c.12.31.23.63.36.94a27,27,0,0,0,2,3.79,62.66,62.66,0,0,0,5.09,6.84l.19.24a59.94,59.94,0,0,1,6,8.18,28.59,28.59,0,0,1,2.7,7.72c.18.7.35,1.4.54,2.11s.38,1.58.55,2.37a21.81,21.81,0,0,0,1.49,5,26.25,26.25,0,0,0,2.15-2.34c.55-.7,1.26-1.69,1.88-2.56l.86-1.19c1-1.41,1.83-2.74,2.67-4.14.46-.77.92-1.54,1.43-2.36a15.6,15.6,0,0,0,1.92-3.74,7.19,7.19,0,0,0,.07-3.61,16.15,16.15,0,0,1-.08-3.43c.41-7.53,4.12-15.36,11-23.29a3.67,3.67,0,0,1,2.11-1.09c.44-.09,1.11.6,1.21,1,.41,1.77-.87,3.74-2,5.49-.37.58-.73,1.12-1,1.59a43.3,43.3,0,0,0-2.93,7.25c-.34,1.13-.66,2.3-1,3.42l-.27,1a46.56,46.56,0,0,1-2.37,7c-.08.17-.16.34-.23.52a8.09,8.09,0,0,1-1.15,2,5.86,5.86,0,0,1-.63.6,3,3,0,0,0-.81.89,4.52,4.52,0,0,0-.27,1.15c.84.07,2.33-1.17,3.24-1.93.31-.26.58-.48.79-.63a47.59,47.59,0,0,0,4.52-3.67,27.23,27.23,0,0,0,3.38-3.72,6.79,6.79,0,0,0,.44-.78c.38-.76.85-1.7,1.83-1.77a1.43,1.43,0,0,1,.72.13,1.55,1.55,0,0,1,.75,1.5c-.12,1.74-1.28,2.88-2.39,4-.15.15-.3.29-.44.44a35,35,0,0,1-5.55,4.51,29.45,29.45,0,0,1-3.77,2l-1.62.76-.2.11A9.59,9.59,0,0,0,34,40.1a3.43,3.43,0,0,0-.8,1.87.15.15,0,0,0,0,.07l.18-.08.11,0c.46-.18.93-.35,1.4-.5.69-.22,1.38-.42,2.07-.62l.58-.17a23.08,23.08,0,0,1,3.11-.6l1.53-.25c1.56-.29,3.12-.58,4.68-.89,3.61-.71,6.57-1.35,9.3-2,1-.23,2-.42,3-.62l.71-.13c.6-.12,3.77-.53,4.44.35a.64.64,0,0,1,.12.52c-.07.42-.52.88-1.41,1.44A36,36,0,0,1,52,43a33.66,33.66,0,0,1-9.11.42c-1-.05-2-.09-3-.11a13.58,13.58,0,0,1-1.47-.1,8.58,8.58,0,0,0-2.21,0,10.26,10.26,0,0,0-5,2.42A8,8,0,0,0,29,48.26c-.17.26-.32.51-.48.74-.59.89-1.25,1.75-1.88,2.58l-.15.21c-.15.19-.29.4-.44.61l-.48.68-.3.36a2.44,2.44,0,0,0-.52.73,1.13,1.13,0,0,0,.09,1.15,1.94,1.94,0,0,0,1.27.43h.11a24.19,24.19,0,0,1,3.42,1c2.59-3.06,7.64-2.3,11.22-.7s7,5.27,6.57,9.83c0,.48-.07.79.22,1.11a1,1,0,0,1,.2.93,1.52,1.52,0,0,1-1,1,15.48,15.48,0,0,0-1.71.59,8.14,8.14,0,0,1-3.43.78,12.61,12.61,0,0,1-11.55-7.85c-.17-.41-.31-.82-.46-1.23a14.24,14.24,0,0,0-.77-1.94,3.68,3.68,0,0,0-2.51-2,3.61,3.61,0,0,0-3.06.9c-1.75,1.48-2.27,4.22-2.72,6.64-.14.75-.27,1.46-.43,2.11A7.16,7.16,0,0,0,20,68.4a4.59,4.59,0,0,1-.7,2.75A.3.3,0,0,1,19.06,71.27Zm-17.5-59v.31c0,.44,0,.86,0,1.29a11.09,11.09,0,0,0,.22,1.72l0,.15a7,7,0,0,1,.05,1.51v.37A28.5,28.5,0,0,0,2,21.42,27.83,27.83,0,0,0,12.37,40.25a27.11,27.11,0,0,0,2.45,1.67,13.44,13.44,0,0,1,4.58,4A18.43,18.43,0,0,1,21.58,51a8.8,8.8,0,0,1,.32,4.69A6.69,6.69,0,0,1,20.71,58a10,10,0,0,0-1,2,19.38,19.38,0,0,0-1,9.8c.07.46.12.71.29.83a4.55,4.55,0,0,0,.45-2.23,7.36,7.36,0,0,1,.18-1.61c.16-.64.29-1.34.42-2.08.48-2.52,1-5.37,2.92-7a4.24,4.24,0,0,1,3.57-1A4.29,4.29,0,0,1,29.41,59a17.37,17.37,0,0,1,.81,2c.14.4.28.81.44,1.2a12,12,0,0,0,11,7.48A7.48,7.48,0,0,0,44.87,69a15.32,15.32,0,0,1,1.78-.62.87.87,0,0,0,.59-.56.37.37,0,0,0-.06-.36,1.75,1.75,0,0,1-.38-1.51c.36-4.32-3-7.83-6.22-9.28-2.77-1.25-8.14-2.5-10.63.68h0l0,0a.31.31,0,0,1-.5,0,23.71,23.71,0,0,0-3.3-1l-.1,0a2.41,2.41,0,0,1-1.66-.62,1.72,1.72,0,0,1-.2-1.78,3.36,3.36,0,0,1,.63-.9l.27-.33c.16-.21.32-.43.47-.65l.45-.63.16-.21c.62-.83,1.27-1.68,1.85-2.55.16-.23.31-.48.47-.73a8.56,8.56,0,0,1,2.38-2.81,10.8,10.8,0,0,1,5.27-2.52,9.25,9.25,0,0,1,2.36,0c.45.05.92.1,1.4.11,1,0,2,.05,3.06.1a33.12,33.12,0,0,0,8.94-.4,35.53,35.53,0,0,0,10.78-4.55c1-.64,1.13-1,1.14-1v0c-.29-.4-2.45-.41-3.85-.14l-.71.14c-1,.19-2,.39-3,.62-2.74.68-5.7,1.33-9.33,2-1.56.3-3.12.6-4.68.88-.51.1-1,.18-1.55.26a22.86,22.86,0,0,0-3,.59l-.58.17c-.69.19-1.37.39-2.05.61-.46.15-.92.31-1.37.49l-.1,0a.79.79,0,0,1-.73.06.73.73,0,0,1-.29-.54,3.89,3.89,0,0,1,.92-2.29,10,10,0,0,1,3.78-2.65l.21-.1c.54-.27,1.08-.52,1.63-.77a29.44,29.44,0,0,0,3.69-1.93,33.25,33.25,0,0,0,5.45-4.44l.45-.44c1.08-1.06,2.11-2.06,2.22-3.58a1,1,0,0,0-.43-.92.76.76,0,0,0-.41-.07c-.64,0-1,.75-1.34,1.44a5.38,5.38,0,0,1-.49.86A27.26,27.26,0,0,1,44.78,31a48.9,48.9,0,0,1-4.58,3.71c-.2.15-.46.36-.76.61-1.17,1-2.76,2.31-3.87,2a.41.41,0,0,1-.28-.23c-.21-.45.21-1.64.26-1.73a3.41,3.41,0,0,1,1-1.1,4.06,4.06,0,0,0,.56-.53,7.22,7.22,0,0,0,1.06-1.89c.08-.18.15-.36.23-.53a45.79,45.79,0,0,0,2.35-6.91l.26-1c.31-1.13.62-2.3,1-3.44a43.31,43.31,0,0,1,3-7.35c.25-.5.62-1.05,1-1.65,1-1.56,2.28-3.5,1.92-5a1.13,1.13,0,0,0-.54-.56,3.13,3.13,0,0,0-1.74.89c-6.82,7.83-10.48,15.54-10.88,22.93a15.55,15.55,0,0,0,.07,3.3,7.73,7.73,0,0,1-.09,3.89,16.41,16.41,0,0,1-2,3.89c-.51.8-1,1.57-1.43,2.33a47.7,47.7,0,0,1-2.7,4.2c-.25.35-.55.75-.85,1.18-.63.88-1.34,1.87-1.9,2.58,0,0-2.11,2.68-2.66,2.58l-.21,0a.29.29,0,0,1-.21-.16,21.46,21.46,0,0,1-1.62-5.31c-.17-.82-.34-1.6-.54-2.35S20.19,43.9,20,43.2a28.13,28.13,0,0,0-2.64-7.57,59.08,59.08,0,0,0-5.92-8.11l-.19-.23a64.05,64.05,0,0,1-5.13-6.9,26.68,26.68,0,0,1-2-3.89c-.13-.31-.25-.64-.37-1a13,13,0,0,0-.7-1.68C2.71,13.18,2.18,12.32,1.56,12.26Z"/></g></svg>